<svg id="Layer_1" data-name="Layer 1" xmlns="http://www.w3.org/2000/svg" viewBox="0 0 16 16"><defs><style>.cls-1{fill:#666;}</style></defs><path class="cls-1" d="M14,1a1,1,0,0,1,1,1V14a1,1,0,0,1-1,1H2a1,1,0,0,1-1-1V2A1,1,0,0,1,2,1ZM2,0A2,2,0,0,0,0,2V14a2,2,0,0,0,2,2H14a2,2,0,0,0,2-2V2a2,2,0,0,0-2-2Z"/><path class="cls-1" d="M5.26,5.79A.22.22,0,0,0,5.48,6h.84a.27.27,0,0,0,.27-.25,1.25,1.25,0,0,1,1.34-1.1,1.15,1.15,0,0,1,1.3,1,1,1,0,0,1,0,.17c0,.63-.37.92-1,1.37a2.29,2.29,0,0,0-1.17,2V9.4a.26.26,0,0,0,.25.25h.81a.25.25,0,0,0,.25-.25V9.28c0-.71.28-.92,1-1.48a2.45,2.45,0,0,0,1.25-2.06C10.68,4.23,9.4,3.5,8,3.5A2.46,2.46,0,0,0,5.27,5.64C5.27,5.69,5.26,5.74,5.26,5.79Zm1.55,5.76a1,1,0,0,0,1,.93A.94.94,0,1,0,8,10.61H7.81a1,1,0,0,0-1,.88Z"/></svg>